<svg xmlns="http://www.w3.org/2000/svg" xmlns:xlink="http://www.w3.org/1999/xlink" viewBox="0 0 1024 1024"><defs><style>.cls-1{fill:none;}.cls-2{fill:url(#linear-gradient);}.cls-3{fill:url(#linear-gradient-2);}</style><linearGradient id="linear-gradient" x1="322.67" y1="596.63" x2="723.31" y2="195.98" gradientUnits="userSpaceOnUse"><stop offset="0" stop-color="#0428e4"/><stop offset="1" stop-color="#1ee7d4"/></linearGradient><linearGradient id="linear-gradient-2" x1="590.83" y1="737.88" x2="358.22" y2="334.98" gradientUnits="userSpaceOnUse"><stop offset="0" stop-color="#8318f2"/><stop offset="0.5" stop-color="#4811e8"/><stop offset="1" stop-color="#330ca6"/></linearGradient></defs><g id="Layer_2" data-name="Layer 2"><g id="Layer_5" data-name="Layer 5"><rect class="cls-1" width="1024" height="1024"/><path d="M208.6,837.76c-5.38-43.09-10.6-93.42-13.12-102.51-1.35-2.86-4.89-3.87-8.25-3.87-3,0-4.88.34-6.23,1-3.53,2.19-5.55,5.89-6.9,9.26-8.08,21.71-19.36,52.85-28.61,75.91-7.58-22.22-18-51.17-27.27-77.09-1.85-5.05-4.71-8.92-10.27-8.92-5.22,0-10.6,2.36-12,7.24-2.19,16-9.76,74.56-13.63,98.63-.84,5.56,2.86,9.76,8.75,9.76,5,0,8.75-2.19,9.43-7.57l9.25-76.25,24.58,71.2c1.85,4.71,4.2,8.58,10.1,8.58,6.22,0,9.25-3.7,10.94-7.91l27.1-71.36c2.52,24.23,4.88,51.67,7.57,75.57.67,5.22,4,7.91,9.26,7.91C204.73,847.35,209.11,844.15,208.6,837.76Z"/><path d="M297.47,829.51l-47.8.5.16-33.49,38.38.17c6.56,0,8.42-3.54,8.42-8.08,0-5.89-2.87-8.25-9.09-8.25l-37.54.51.34-33h45.44c6.4,0,7.91-3.71,7.91-8.25,0-5-2.52-8.08-8.24-8.08l-51.84.34c-6.74,0-11.62,2.18-11.79,8.58v41.24L231,836.07c0,8.25,3.71,10.61,16.16,10.61h48.31c7.57,0,9.59-4,9.59-9.09C305,832.88,302.68,829.51,297.47,829.51Z"/><path d="M397.44,731.72l-36.52.33-39.39-.16c-5.89,0-8.24,3.7-8.24,8.24,0,5.22,2.35,8.59,7.91,8.59l29.62-.17-.17,88.87c0,6.9,3.37,9.43,8.92,9.43,6.57,0,9.93-3.2,9.93-9.93l-.5-88.54,27.94.34c6.56,0,9.09-3.37,9.09-9.26C406,734.24,403.17,731.72,397.44,731.72Z"/><path d="M488.16,829.51l-47.8.5.17-33.49,38.37.17c6.57,0,8.42-3.54,8.42-8.08,0-5.89-2.86-8.25-9.09-8.25l-37.54.51.34-33h45.45c6.39,0,7.91-3.71,7.91-8.25,0-5-2.53-8.08-8.25-8.08l-51.84.34c-6.73,0-11.61,2.18-11.78,8.58v41.24l-.84,54.36c0,8.25,3.7,10.61,16.15,10.61h48.31c7.58,0,9.59-4,9.59-9.09C495.73,832.88,493.38,829.51,488.16,829.51Z"/><path d="M564.91,730.71c-27.94-.17-55.55,23.06-55.55,61.27,0,34.67,27.44,56,55.21,56,32.15,0,55.55-26.6,55.55-60.09C620.12,754.1,595,730.71,564.91,730.71Zm.5,99.64c-20.7,0-37.19-15.82-37.19-40.06,0-24.74,16-42.25,35.34-42.25,20,0,37.54,15.32,37.7,40.23C601.43,811,585.78,830.35,565.41,830.35Z"/><path d="M721.27,832l-22.89-31.47c13-4.54,22.38-16.5,22.38-32.49,0-22.89-17.67-36.35-41.91-36.35l-24.57.17c-7.91,0-13.64,3.87-13.64,11.27l.51,23.74-.34,69.68c0,6.9,3.2,10.27,9.26,10.27,6.73,0,9.43-4.38,9.43-9.93l-.17-31.82H681l25.08,37c2.35,2.86,4,4.88,7.91,4.88,5.39,0,9.76-3.87,9.76-8.58C723.79,836.07,722.78,834.22,721.27,832Zm-43.93-42.75H659.5l-.17-41.07,19.18-.33c14.65,0,23.74,7.23,23.74,20.53C702.25,783.05,691.81,789.28,677.34,789.28Z"/><path d="M809.8,829.51,762,830l.17-33.49,38.38.17c6.56,0,8.41-3.54,8.41-8.08,0-5.89-2.86-8.25-9.09-8.25l-37.53.51.34-33h45.44c6.4,0,7.91-3.71,7.91-8.25,0-5-2.52-8.08-8.25-8.08l-51.84.34c-6.73,0-11.61,2.18-11.78,8.58v41.24l-.84,54.36c0,8.25,3.7,10.61,16.16,10.61h48.3c7.58,0,9.6-4,9.6-9.09C817.37,832.88,815,829.51,809.8,829.51Z"/><path d="M886.54,730.71C858.6,730.54,831,753.77,831,792c0,34.67,27.44,56,55.21,56,32.15,0,55.54-26.6,55.54-60.09C941.75,754.1,916.67,730.71,886.54,730.71Zm.51,99.64c-20.7,0-37.2-15.82-37.2-40.06,0-24.74,16-42.25,35.35-42.25,20,0,37.53,15.32,37.7,40.23C923.07,811,907.41,830.35,887.05,830.35Z"/><path class="cls-2" d="M900.52,432.48A143.56,143.56,0,0,0,792.93,293.62h0c-1.07-.28-2.15-.54-3.24-.79l-1.07-.24c-.74-.17-1.47-.33-2.21-.48l-1.49-.3-1.83-.35c-.56-.11-1.13-.2-1.7-.3l-1.66-.28-1.79-.27-1.61-.22-1.82-.24-1.63-.18-1.81-.19-1.71-.15-1.73-.14c-.63-.05-1.25-.09-1.88-.12l-1.59-.1-2.21-.08-1.28-.05c-1.17,0-2.35,0-3.52,0-2.59,0-5.26.07-7.94.22h-7.47l-.06-.23H682.73a9,9,0,0,1,0-18h54A234.74,234.74,0,0,0,512.36,106c-85.9,0-165.45,47.69-206.35,122.59a181.8,181.8,0,0,1,75.52,24.49,9,9,0,1,1-9.14,15.51A164,164,0,0,0,297,246h-5.7l-2.89,0a166.65,166.65,0,0,0-41.81,5.3l-1.28.35c-.82.22-1.63.44-2.45.68a164.35,164.35,0,0,0-96.4,74.64c-.12.2-.26.38-.39.56A164.4,164.4,0,0,0,124,398h32.29a144.7,144.7,0,0,1,88.56,29.91,147.4,147.4,0,0,1,49,67.12H727V427.53a24.68,24.68,0,0,1,37-21.38l7.1,4.1,65.74,38,12.15,7,12,6.94,31.33,18.09a142.39,142.39,0,0,0,8.19-47.76ZM403.9,328.32a22.82,22.82,0,1,1,22.82-22.82A22.85,22.85,0,0,1,403.9,328.32ZM588.39,469.78c-7.44,0-12.25-3.83-13.2-11.27-3.84-34.07-7.2-73.18-10.79-107.71L525.77,452.51c-2.41,6-6.73,11.27-15.59,11.27-8.41,0-11.76-5.52-14.4-12.23l-35-101.48L447.56,458.75c-1,7.67-6.24,10.79-13.44,10.79-8.39,0-13.67-6-12.47-13.91,5.52-34.31,16.31-117.79,19.43-140.58,1.92-7,9.59-10.32,17-10.32,7.93,0,12,5.52,14.64,12.71,13.2,36.95,28.06,78.21,38.87,109.88,13.18-32.87,29.26-77.25,40.78-108.2,1.92-4.8,4.8-10.07,9.83-13.19,1.92-1,4.56-1.44,8.88-1.44,4.79,0,9.84,1.44,11.76,5.51,3.59,13,11,84.7,18.7,146.11C602.3,465.22,596.05,469.78,588.39,469.78ZM403.9,293.15a12.35,12.35,0,1,0,12.35,12.35A12.36,12.36,0,0,0,403.9,293.15Z"/><path class="cls-3" d="M953.2,547.76,755,662.2a6.68,6.68,0,0,1-10-5.78V581.19a6.22,6.22,0,0,0-3-5.31,6.15,6.15,0,0,0-3.27-.93H285.29a6.07,6.07,0,0,0-3.06.82,6.2,6.2,0,0,0-2.93,3.7,125.79,125.79,0,0,1-4.37,12.65h0A128.22,128.22,0,0,1,156.28,672H80.38a12.93,12.93,0,0,1-12.92-12.92V428.87A12.92,12.92,0,0,1,80.38,416h75.9a128.07,128.07,0,0,1,123,92.51,6.24,6.24,0,0,0,6,4.52H738.71a6.24,6.24,0,0,0,6.24-6.24V427.53a6.69,6.69,0,0,1,10-5.8l7.1,4.11,65.74,38,12.15,7,12,6.94,33.2,19.17,12.49,7.21,55.5,32A6.69,6.69,0,0,1,953.2,547.76Z"/></g></g></svg>