<?xml version="1.0" encoding="UTF-8" standalone="no"?>
<!-- Created with Inkscape (http://www.inkscape.org/) -->

<svg
   width="200"
   height="200"
   viewBox="0 0 52.916665 52.916668"
   version="1.1"
   id="svg5"
   inkscape:version="1.1.1 (3bf5ae0d25, 2021-09-20)"
   sodipodi:docname="logo.svg"
   inkscape:export-filename="/home/thblckjkr/repos/meteoreo-web/src/assets/logo.png"
   inkscape:export-xdpi="96"
   inkscape:export-ydpi="96"
   xmlns:inkscape="http://www.inkscape.org/namespaces/inkscape"
   xmlns:sodipodi="http://sodipodi.sourceforge.net/DTD/sodipodi-0.dtd"
   xmlns:xlink="http://www.w3.org/1999/xlink"
   xmlns="http://www.w3.org/2000/svg"
   xmlns:svg="http://www.w3.org/2000/svg">
  <sodipodi:namedview
     id="namedview7"
     pagecolor="#ffffff"
     bordercolor="#999999"
     borderopacity="1"
     inkscape:pageshadow="0"
     inkscape:pageopacity="0"
     inkscape:pagecheckerboard="0"
     inkscape:document-units="mm"
     showgrid="false"
     units="px"
     width="200px"
     inkscape:zoom="5.6568542"
     inkscape:cx="79.19596"
     inkscape:cy="93.426483"
     inkscape:window-width="1900"
     inkscape:window-height="977"
     inkscape:window-x="10"
     inkscape:window-y="62"
     inkscape:window-maximized="1"
     inkscape:current-layer="layer1"
     showguides="true"
     inkscape:guide-bbox="true"
     inkscape:snap-path-clip="true"
     inkscape:snap-perpendicular="true"
     inkscape:snap-tangential="true" />
  <defs
     id="defs2">
    <linearGradient
       inkscape:collect="always"
       id="linearGradient10045">
      <stop
         style="stop-color:#09ab5d;stop-opacity:1"
         offset="0"
         id="stop11238" />
      <stop
         style="stop-color:#16b2d4;stop-opacity:1"
         offset="1"
         id="stop11240" />
    </linearGradient>
    <linearGradient
       inkscape:collect="always"
       id="linearGradient11133">
      <stop
         style="stop-color:#09ab5d;stop-opacity:1"
         offset="0"
         id="stop11129" />
      <stop
         style="stop-color:#16b2d4;stop-opacity:1"
         offset="1"
         id="stop11131" />
    </linearGradient>
    <linearGradient
       inkscape:collect="always"
       id="linearGradient10937">
      <stop
         style="stop-color:#09ab5d;stop-opacity:1"
         offset="0"
         id="stop10933" />
      <stop
         style="stop-color:#16b2d4;stop-opacity:1"
         offset="1"
         id="stop10935" />
    </linearGradient>
    <linearGradient
       inkscape:collect="always"
       id="linearGradient10045-2">
      <stop
         style="stop-color:#10cbaa;stop-opacity:1"
         offset="0"
         id="stop10041" />
      <stop
         style="stop-color:#16b2d4;stop-opacity:1"
         offset="1"
         id="stop10043" />
    </linearGradient>
    <linearGradient
       inkscape:collect="always"
       xlink:href="#linearGradient10045-2"
       id="linearGradient10113"
       gradientUnits="userSpaceOnUse"
       x1="15.420554"
       y1="30.617964"
       x2="38.837528"
       y2="30.587757"
       gradientTransform="matrix(1.1302315,0,0,1.1302315,-3.4410302,-3.1768327)" />
    <linearGradient
       inkscape:collect="always"
       xlink:href="#linearGradient11133"
       id="linearGradient10353"
       x1="38.446301"
       y1="13.853518"
       x2="38.454853"
       y2="22.669893"
       gradientUnits="userSpaceOnUse"
       gradientTransform="matrix(1.1302315,0,0,1.1302315,-3.4410302,-3.1768327)" />
    <linearGradient
       inkscape:collect="always"
       xlink:href="#linearGradient10937"
       id="linearGradient10741"
       x1="14.677121"
       y1="17.414473"
       x2="14.628613"
       y2="24.942041"
       gradientUnits="userSpaceOnUse"
       gradientTransform="matrix(1.1302315,0,0,1.1302315,-3.4410302,-3.1768327)" />
    <radialGradient
       inkscape:collect="always"
       xlink:href="#linearGradient10045"
       id="radialGradient11357"
       cx="14.669807"
       cy="19.785995"
       fx="14.669807"
       fy="19.785995"
       r="5.2171168"
       gradientTransform="matrix(0.71036424,-6.4289716e-4,4.800103e-4,0.53039695,2.7163702,5.4479896)"
       gradientUnits="userSpaceOnUse" />
    <linearGradient
       inkscape:collect="always"
       xlink:href="#linearGradient10937"
       id="linearGradient11954"
       x1="39.981262"
       y1="12.525091"
       x2="34.667469"
       y2="12.517093"
       gradientUnits="userSpaceOnUse"
       gradientTransform="matrix(1.1302315,0,0,1.1302315,-3.4410302,-3.1768327)" />
  </defs>
  <g
     inkscape:label="Cloud"
     inkscape:groupmode="layer"
     id="layer1">
    <path
       id="path4623"
       style="fill:none;stroke:#16b2d4;stroke-width:0.565116;stroke-miterlimit:4;stroke-dasharray:none;stroke-opacity:1;stop-color:#000000"
       d="M 6.8992178,15.968262 A 1.6709267,1.6709267 0 0 1 5.2282907,17.639189 1.6709267,1.6709267 0 0 1 3.5573643,15.968262 1.6709267,1.6709267 0 0 1 5.2282907,14.297335 1.6709267,1.6709267 0 0 1 6.8992178,15.968262 Z" />
    <path
       id="path4623-0"
       style="fill:none;stroke:#16b2d4;stroke-width:0.565116;stroke-miterlimit:4;stroke-dasharray:none;stroke-opacity:1;stop-color:#000000"
       d="m 21.939929,15.858213 a 1.6709267,1.6709267 0 0 1 -1.670927,1.670928 1.6709267,1.6709267 0 0 1 -1.670927,-1.670928 1.6709267,1.6709267 0 0 1 1.670927,-1.670926 1.6709267,1.6709267 0 0 1 1.670927,1.670926 z" />
    <path
       style="fill:none;stroke:url(#linearGradient10741);stroke-width:0.565116;stroke-linecap:butt;stroke-linejoin:miter;stroke-miterlimit:4;stroke-dasharray:none;stroke-opacity:1"
       d="m 13.147574,27.560345 -8e-4,-11.627354"
       id="path4870-5"
       sodipodi:nodetypes="cc" />
    <path
       style="fill:none;stroke:url(#linearGradient10353);stroke-width:0.565116;stroke-linecap:butt;stroke-linejoin:miter;stroke-miterlimit:4;stroke-dasharray:none;stroke-opacity:1"
       d="M 39.997596,27.014742 39.996795,10.997091"
       id="path4870-5-2"
       sodipodi:nodetypes="cc" />
    <path
       id="path1426"
       style="fill:url(#linearGradient10113);fill-opacity:1;stroke:none;stroke-width:1.13023;stroke-miterlimit:4;stroke-dasharray:none"
       d="m 26.337246,20.140506 c -4.08133,2e-6 -7.642331,2.228048 -9.532843,5.534225 a 6.8741349,6.8741349 0 0 0 -2.54089,-0.487558 6.8741349,6.8741349 0 0 0 -6.8744507,6.874001 6.8741349,6.8741349 0 0 0 6.7889147,6.869499 c 0.0046,0.0046 0.0088,0.0093 0.0136,0.01396 4.222635,-0.01378 18.355382,-0.0068 23.914714,0 0.02257,-0.02245 0.04392,-0.04531 0.06528,-0.06798 a 6.8741349,6.8741349 0 0 0 0.546536,0.03061 6.8741349,6.8741349 0 0 0 6.873999,-6.873999 6.8741349,6.8741349 0 0 0 -6.873999,-6.874451 6.8741349,6.8741349 0 0 0 -2.798851,0.605058 C 34.041945,22.4089 30.454977,20.140505 26.337252,20.140505 Z m 0.342595,20.147499 a 0.01023405,0.01023405 0 0 0 -0.0071,0.0032 0.01023405,0.01023405 0 0 0 -0.0032,0.0071 0.01023405,0.01023405 0 0 0 0.0104,0.0104 0.01023405,0.01023405 0 0 0 0.0086,-0.005 0.01023405,0.01023405 0 0 0 0.0014,-0.0053 0.01023405,0.01023405 0 0 0 -0.0014,-0.005 0.01023405,0.01023405 0 0 0 -0.0086,-0.0053 z" />
    <rect
       style="font-variation-settings:normal;opacity:1;fill:none;fill-opacity:1;stroke:#16b2d4;stroke-width:0.565116;stroke-linecap:butt;stroke-linejoin:miter;stroke-miterlimit:4;stroke-dasharray:none;stroke-dashoffset:0;stroke-opacity:1;stop-color:#000000;stop-opacity:1"
       id="rect5991"
       width="4.1545382"
       height="4.1545382"
       x="29.964029"
       y="8.7613325" />
    <path
       style="fill:none;fill-opacity:1;stroke:#09ab5d;stroke-width:0.565116;stroke-linecap:butt;stroke-linejoin:miter;stroke-miterlimit:4;stroke-dasharray:none;stroke-opacity:1"
       d="m 45.553297,8.7785472 3.466954,2.0717068 -3.466954,2.082831 V 8.7785472"
       id="path6479" />
    <path
       style="fill:none;stroke:url(#radialGradient11357);stroke-width:0.565116;stroke-linecap:butt;stroke-linejoin:miter;stroke-miterlimit:4;stroke-dasharray:none;stroke-opacity:1"
       d="M 6.8992178,15.968262 H 18.692317"
       id="path4870" />
    <path
       style="fill:none;stroke:url(#linearGradient11954);stroke-width:0.565116;stroke-linecap:butt;stroke-linejoin:miter;stroke-miterlimit:4;stroke-dasharray:none;stroke-opacity:1"
       d="M 34.09444,11.032363 H 45.542338"
       id="path4870-1" />
  </g>
  <g
     inkscape:groupmode="layer"
     id="layer2"
     inkscape:label="Network" />
</svg>
